<svg width="22" height="19" viewBox="0 0 22 19" fill="none" xmlns="http://www.w3.org/2000/svg">
<path fill-rule="evenodd" clip-rule="evenodd" d="M18.7828 1.41849C19.1313 1.3359 19.3743 1.25469 19.5734 1.16939C19.8524 1.04985 20.0838 0.906651 20.4492 0.665481C20.7563 0.462801 21.1499 0.445151 21.4739 0.619531C21.7979 0.793911 22 1.13214 22 1.5001C22 2.58104 21.8654 3.46697 21.5535 4.24665C21.2911 4.90245 20.9226 5.43511 20.4817 5.91992C20.2954 9.2831 19.3219 11.9241 17.8336 13.9251C16.2911 15.999 14.2386 17.3271 12.0751 18.0708C9.9179 18.8123 7.63864 18.978 5.59672 18.727C3.56818 18.4776 1.69306 17.806 0.38607 16.7894C0.0281396 16.511 -0.0976724 16.0267 0.0795296 15.6093C0.25672 15.1919 0.69258 14.946 1.14146 15.0101C2.42742 15.1939 3.66532 14.9015 4.68321 14.4834C4.48283 14.3744 4.2939 14.2564 4.1183 14.1349C3.19076 13.4927 2.44242 12.621 2.10558 11.9474C1.9662 11.6686 1.96476 11.3408 2.10169 11.0608C2.17233 10.9164 2.27563 10.7932 2.40105 10.6994C1.04679 9.5817 0.50001 8.0358 0.50001 7.0001C0.50001 6.69216 0.64188 6.4014 0.88461 6.21189C0.98666 6.13221 1.10176 6.07417 1.2231 6.03921C1.12176 5.74246 1.04312 5.44266 0.98317 5.15241C0.71741 3.86554 0.741 2.41308 1.02986 1.25757C1.12871 0.862161 1.45766 0.566301 1.8613 0.509771C2.26495 0.453231 2.66251 0.647341 2.86619 1.00038C3.9437 2.86806 5.93117 4.00968 7.78088 4.68592C8.65051 5.00386 9.456 5.20646 10.0596 5.33103C10.1899 4.11043 10.5308 3.10384 11.0538 2.30435C11.7439 1.24956 12.7064 0.625491 13.7401 0.347221C15.5227 -0.132679 17.5008 0.414071 18.7828 1.41849ZM9.7484 7.3087C9.0633 7.1711 8.12173 6.94001 7.09414 6.56432C5.73692 6.06813 4.1609 5.29442 2.84073 4.09595C2.86436 4.3165 2.89791 4.53516 2.94184 4.7479C3.16309 5.81924 3.57421 6.41923 3.94722 6.60574C4.40343 6.83384 4.61486 7.3687 4.43789 7.8471C4.19829 8.4948 3.56811 8.548 2.99552 8.4048C3.45605 9.0953 4.28379 9.7837 5.66441 10.0138C6.14059 10.0931 6.49209 10.5014 6.49988 10.984C6.50766 11.4667 6.1695 11.8861 5.69612 11.9807L4.82566 12.1548C4.95882 12.2706 5.10301 12.3841 5.25672 12.4905C5.95363 12.973 6.65338 13.181 7.25747 13.03C7.70992 12.9169 8.18048 13.1316 8.39164 13.5474C8.6028 13.9632 8.49847 14.4698 8.14019 14.7684C7.49627 15.3044 6.74426 15.7344 5.99059 16.0914C5.63677 16.259 5.24136 16.4244 4.81191 16.57C5.1422 16.6404 5.48587 16.6983 5.8408 16.7419C7.61137 16.9596 9.5821 16.8129 11.4249 16.1794C13.2614 15.5482 14.959 14.4388 16.2289 12.7315C17.4971 11.0265 18.382 8.6669 18.5007 5.46315C18.51 5.21091 18.6144 4.97154 18.7929 4.79306C19.2426 4.34341 19.6141 3.82802 19.7969 3.21455C19.477 3.31427 19.1168 3.40059 18.6878 3.48261C18.3623 3.54483 18.0272 3.44181 17.7929 3.20751C17.0284 2.44299 15.5164 1.94023 14.26 2.27846C13.6686 2.43765 13.1311 2.78228 12.7275 3.3993C12.3153 4.02928 12 5.01069 12 6.50015C12 6.78312 11.8801 7.0528 11.6701 7.2425C11.1721 7.692 10.334 7.4263 9.7484 7.3087Z" fill="#0F0F0F"/>
</svg>
